<svg xmlns="http://www.w3.org/2000/svg" xmlns:xlink="http://www.w3.org/1999/xlink" width="647" height="647" viewBox="0 0 647 647">
  <defs>
    <style>
      .cls-1 {
        fill: rgba(83,83,83,0.17);
      }

      .cls-2 {
        fill: #ff8959;
      }

      .cls-3 {
        fill: #ff7b45;
      }

      .cls-4 {
        fill: #ff6a2e;
      }

      .cls-5 {
        fill: #fc5c1c;
      }

      .cls-6, .cls-7 {
        fill: #002b71;
      }

      .cls-7 {
        font-size: 70px;
        font-family: Righteous-Regular, Righteous;
      }

      .cls-8 {
        font-size: 100px;
      }

      .cls-9 {
        filter: url(#Rectangle_1);
      }
    </style>
    <filter id="Rectangle_1" x="0" y="0" width="647" height="647" filterUnits="userSpaceOnUse">
      <feOffset dy="3" input="SourceAlpha"/>
      <feGaussianBlur stdDeviation="3" result="blur"/>
      <feFlood flood-opacity="0.161"/>
      <feComposite operator="in" in2="blur"/>
      <feComposite in="SourceGraphic"/>
    </filter>
  </defs>
  <g id="Logo" transform="translate(-48 -51)">
    <g class="cls-9" transform="matrix(1, 0, 0, 1, 48, 51)">
      <rect id="Rectangle_1-2" data-name="Rectangle 1" class="cls-1" width="629" height="629" rx="10" transform="translate(9 6)"/>
    </g>
    <g id="Logo-2" data-name="Logo">
      <g id="sphere" transform="translate(205 184.186)">
        <g id="Group_10" data-name="Group 10" transform="translate(3.748 126.811)">
          <g id="Group_9" data-name="Group 9">
            <g id="Group_5" data-name="Group 5">
              <g id="Group_4" data-name="Group 4">
                <path id="Path_11" data-name="Path 11" class="cls-2" d="M87.1-6.226C377.107-66.178,349.252,70.738,349.252,158s-78.183,158-174.626,158c-41.374,0-136.359-61.069-176.5-135.747C-21.92,80.528-41.716-37.325,37.722-6.226,82.8,11.42,13.486-.005,14.741-6.226,17.222-18.391,21.9-6.226,87.1-6.226Z" transform="translate(-25 -71)"/>
              </g>
            </g>
            <path id="Path_8" data-name="Path 8" class="cls-3" d="M224.21,157.414c-11.751,0-1.747,184.837-12.848,186.839,80,14.431,38.607-26.434,38.607,50.194s-60.294,140.505-140.3,154.937A193.334,193.334,0,0,0,144,552.443c96.443,0,70.055-124.752,174.626-158,0-16.234,29.17-25.026,33.938-50.194C363.48,286.645,353.892,202.1,338.723,166.1,325.088,133.748,261.438,157.414,224.21,157.414Z" transform="translate(30.625 -236.449)"/>
            <g id="Group_7" data-name="Group 7" transform="translate(0.169 150.939)">
              <g id="Group_6" data-name="Group 6">
                <path id="Path_9" data-name="Path 9" class="cls-4" d="M182.08,422.315c-89.282,0-164.089-24-174.457-54.94,3.909,91.806,80.513,165.053,174.457,165.053s170.548-73.247,174.457-165.053C346.169,398.313,271.362,422.315,182.08,422.315Z" transform="translate(-7.623 -367.375)"/>
              </g>
            </g>
            <g id="Group_8" data-name="Group 8" transform="translate(140.299 107.551)">
              <path id="Path_10" data-name="Path 10" class="cls-5" d="M-9.426,374.818C-28.312,449.934,172.462,556,109.673,571.611A142.03,142.03,0,0,0,144,575.818c93.944,0,170.549-92.5,174.457-208.442C312.287,390.632,31.873,362.314-9.426,374.818Z" transform="translate(-109.673 -367.376)"/>
            </g>
          </g>
        </g>
      </g>
      <g id="vr-glasses" transform="translate(123.866 106)">
        <path id="Path_1" data-name="Path 1" class="cls-6" d="M299.452,386.371a138.32,138.32,0,0,1-86.916,0,15,15,0,1,0-9.473,28.465,168.506,168.506,0,0,0,105.885,0,15,15,0,0,0-9.5-28.457Z"/>
        <path id="Path_2" data-name="Path 2" class="cls-6" d="M430.736,98a95.251,95.251,0,0,0-94.4-81.932H319.2V15a15,15,0,0,0-15-15H207.8a15,15,0,0,0-15,15v1.066H175.667a95.32,95.32,0,0,0-94.36,81.922A63.3,63.3,0,0,0,32.134,159.6V288.133c0,41.106,33.483,57.859,48.692,61.474C87.694,442.146,165.4,512,256,512c92.4,0,168.358-71.705,175.167-162.389,39.424-9.36,48.7-45.128,48.7-61.477V159.6A63.294,63.294,0,0,0,430.736,98ZM319.2,46.066h17.133c42.442,0,59.975,34.7,63.62,50.334H319.2ZM222.8,30h66.4V96.4H222.8ZM175.667,46.066H192.8V96.4H112.109C121.838,55.644,158.76,46.066,175.667,46.066ZM256,482c-74.035,0-137.32-56.086-144.9-130.667h73.97a70.328,70.328,0,0,0,49.412-20.464c.077-.077.153-.155.229-.234a30.46,30.46,0,0,1,42.587,0c.075.078.151.156.229.233a70.328,70.328,0,0,0,49.413,20.464H400.9C393.366,424.634,331.257,482,256,482ZM449.867,288.134a33.223,33.223,0,0,1-33.2,33.2H326.936A40.125,40.125,0,0,1,298.988,309.9c-.081-.085-.163-.169-.246-.253a60.463,60.463,0,0,0-85.481,0c-.083.083-.166.167-.247.252a40.125,40.125,0,0,1-27.948,11.429H95.333a33.219,33.219,0,0,1-33.2-33.2V159.6a33.237,33.237,0,0,1,33.2-33.2H416.666a33.237,33.237,0,0,1,33.2,33.2V288.134Z"/>
      </g>
    </g>
    <text id="quickAR" class="cls-7" transform="translate(230 355)"><tspan x="0" y="0">quick</tspan><tspan class="cls-8" y="0">AR</tspan></text>
  </g>
</svg>
